<svg width="500" height="419" viewBox="0 0 500 419" fill="none" xmlns="http://www.w3.org/2000/svg">
<path d="M500 395.453H0V395.755H500V395.453Z" fill="#EBEBEB"/>
<path d="M449.9 414.888H416.78V415.189H449.9V414.888Z" fill="#EBEBEB"/>
<path d="M331.22 418.173H322.53V418.475H331.22V418.173Z" fill="#EBEBEB"/>
<path d="M415.78 403.679H396.59V403.981H415.78V403.679Z" fill="#EBEBEB"/>
<path d="M95.65 405.708H52.46V406.01H95.65V405.708Z" fill="#EBEBEB"/>
<path d="M110.89 405.708H104.56V406.01H110.89V405.708Z" fill="#EBEBEB"/>
<path d="M225.15 410.805H131.47V411.107H225.15V410.805Z" fill="#EBEBEB"/>
<path d="M237 341.583H43.91C42.3973 341.579 40.9475 340.851 39.8789 339.558C38.8102 338.265 38.21 336.513 38.21 334.686V6.83648C38.2232 5.01989 38.8292 3.28294 39.8964 2.00289C40.9637 0.722853 42.406 0.00311191 43.91 0H237C238.514 0 239.967 0.726633 241.038 2.02005C242.108 3.31346 242.71 5.06771 242.71 6.89687V334.686C242.71 336.515 242.108 338.269 241.038 339.563C239.967 340.856 238.514 341.583 237 341.583ZM43.91 0.241573C42.4636 0.244772 41.0774 0.941001 40.0557 2.17744C39.0339 3.41388 38.46 5.08949 38.46 6.83648V334.686C38.46 336.433 39.0339 338.108 40.0557 339.345C41.0774 340.581 42.4636 341.277 43.91 341.281H237C238.447 341.277 239.835 340.582 240.858 339.345C241.881 338.109 242.457 336.434 242.46 334.686V6.83648C242.457 5.08838 241.881 3.4128 240.858 2.1767C239.835 0.940609 238.447 0.244766 237 0.241573H43.91Z" fill="#EBEBEB"/>
<path d="M453.31 341.583H260.21C258.696 341.579 257.246 340.852 256.175 339.559C255.105 338.266 254.503 336.514 254.5 334.686V6.83648C254.516 5.01879 255.124 3.28185 256.193 2.00214C257.262 0.722431 258.705 0.00307798 260.21 0H453.31C454.812 0.0062863 456.252 0.727432 457.317 2.00713C458.382 3.28683 458.987 5.02198 459 6.83648V334.686C459 336.511 458.401 338.261 457.335 339.554C456.268 340.847 454.821 341.576 453.31 341.583ZM260.21 0.241573C258.763 0.244766 257.375 0.940609 256.352 2.1767C255.329 3.4128 254.753 5.08838 254.75 6.83648V334.686C254.753 336.434 255.329 338.109 256.352 339.345C257.375 340.582 258.763 341.277 260.21 341.281H453.31C454.757 341.277 456.145 340.582 457.168 339.345C458.191 338.109 458.767 336.434 458.77 334.686V6.83648C458.767 5.08838 458.191 3.4128 457.168 2.1767C456.145 0.940609 454.757 0.244766 453.31 0.241573H260.21Z" fill="#EBEBEB"/>
<path d="M185.57 274.715H65.43C65.4305 277.279 66.2503 279.744 67.7183 281.596C69.1863 283.448 71.1893 284.544 73.31 284.656C86.22 285.357 106.08 287.833 112.38 296.457C124.12 312.546 122.98 369.049 108.92 382.13C104.51 386.237 91.65 394.378 91.65 394.378H159.34C159.34 394.378 147.34 386.068 143.16 382.13C129.16 368.941 128.77 312.473 140.56 296.457C146.62 288.243 165.23 285.586 177.72 284.753C179.843 284.611 181.841 283.491 183.301 281.623C184.761 279.756 185.573 277.284 185.57 274.715Z" fill="#F5F5F5"/>
<path d="M80.31 285.188C92.51 286.395 107.14 289.282 112.38 296.457C114.091 298.935 115.444 301.745 116.38 304.767H136.56C137.503 301.749 138.855 298.94 140.56 296.457C145.82 289.319 160.56 286.383 172.56 285.188H80.31Z" fill="#E6E6E6"/>
<path d="M134.39 274.788L132.76 252.237H156.44L158.07 274.788H134.39Z" fill="#EBEBEB"/>
<path d="M134.39 274.788L132.76 252.237H131.48L133.12 274.788H134.39Z" fill="#E0E0E0"/>
<path d="M136.64 272.493L135.34 254.532H154.19L155.49 272.493H136.64Z" fill="#F0F0F0"/>
<path d="M138.09 271.007L137 256.006H152.75L153.84 271.007H138.09Z" fill="#FAFAFA"/>
<path d="M126.71 274.715H102.92L105.56 238.274H129.35L126.71 274.715Z" fill="#E6E6E6"/>
<path d="M126.71 274.715H127.85L130.49 238.274H129.35L126.71 274.715Z" fill="#E0E0E0"/>
<path d="M124.56 271.007H105.62L107.72 241.995H126.66L124.56 271.007Z" fill="#F0F0F0"/>
<path d="M123.17 268.616H107.35L109.1 244.374H124.92L123.17 268.616Z" fill="#FAFAFA"/>
<path d="M115.18 255.281C115.435 255.591 115.738 255.837 116.072 256.005C116.405 256.173 116.763 256.259 117.125 256.259C117.487 256.259 117.845 256.173 118.178 256.005C118.512 255.837 118.815 255.591 119.07 255.281C119.584 254.656 119.872 253.812 119.872 252.932C119.872 252.051 119.584 251.207 119.07 250.582C118.553 249.962 117.854 249.614 117.125 249.614C116.396 249.614 115.697 249.962 115.18 250.582C114.923 250.89 114.72 251.256 114.581 251.659C114.441 252.062 114.37 252.495 114.37 252.932C114.37 253.369 114.441 253.801 114.581 254.204C114.72 254.607 114.923 254.973 115.18 255.281Z" fill="#EBEBEB"/>
<path d="M116.34 259.352C116.154 259.123 115.932 258.942 115.687 258.818C115.443 258.695 115.18 258.631 114.915 258.631C114.65 258.631 114.387 258.695 114.143 258.818C113.898 258.942 113.676 259.123 113.49 259.352C113.2 259.689 113.001 260.124 112.919 260.599C112.837 261.075 112.876 261.57 113.031 262.019C113.185 262.467 113.448 262.85 113.785 263.115C114.122 263.38 114.518 263.517 114.92 263.507C115.321 263.514 115.716 263.376 116.051 263.11C116.386 262.843 116.648 262.461 116.801 262.013C116.954 261.565 116.992 261.071 116.91 260.596C116.828 260.122 116.629 259.688 116.34 259.352Z" fill="#F0F0F0"/>
<path d="M318 386.926H294.79L307 267.106C307.295 264.602 308.314 262.305 309.877 260.622C311.441 258.94 313.447 257.98 315.54 257.914H416.64L401.79 386.926H318Z" fill="#F5F5F5"/>
<path d="M391.45 386.926H414.62L426.8 267.106C426.95 265.954 426.888 264.777 426.619 263.657C426.351 262.537 425.882 261.502 425.246 260.625C424.609 259.748 423.821 259.051 422.937 258.583C422.053 258.114 421.095 257.886 420.13 257.914H412.13C410.037 257.98 408.031 258.94 406.467 260.622C404.904 262.305 403.885 264.602 403.59 267.106L391.45 386.926Z" fill="#F0F0F0"/>
<path d="M382.91 386.781L387.11 328.803C387.203 327.543 387.65 326.359 388.378 325.449C389.106 324.539 390.07 323.958 391.11 323.803L392.83 323.537C394.221 323.327 395.511 322.547 396.483 321.327C397.455 320.107 398.05 318.521 398.17 316.834L398.93 306.265C399.005 305.241 398.903 304.21 398.63 303.236C398.357 302.263 397.919 301.369 397.344 300.611C396.769 299.853 396.07 299.248 395.291 298.835C394.512 298.421 393.671 298.208 392.82 298.208H431.55C432.4 298.21 433.241 298.424 434.019 298.838C434.798 299.253 435.496 299.858 436.07 300.615C436.645 301.373 437.083 302.266 437.356 303.238C437.63 304.211 437.733 305.241 437.66 306.265L436.89 316.834C436.771 318.519 436.176 320.104 435.206 321.324C434.236 322.544 432.949 323.325 431.56 323.537L429.83 323.803C428.791 323.96 427.828 324.542 427.1 325.452C426.373 326.361 425.924 327.544 425.83 328.803L421.64 386.781C421.492 388.821 420.718 390.72 419.468 392.104C418.219 393.488 416.585 394.256 414.89 394.257H376.16C377.856 394.259 379.491 393.491 380.741 392.107C381.99 390.722 382.765 388.822 382.91 386.781Z" fill="#E6E6E6"/>
<path d="M276.35 314.321C276.032 309.931 274.364 305.843 271.675 302.865C268.985 299.887 265.469 298.234 261.82 298.233H295.53C299.179 298.234 302.695 299.887 305.385 302.865C308.074 305.843 309.742 309.931 310.06 314.321L313.39 360.22H279.68L276.35 314.321Z" fill="#E6E6E6"/>
<path d="M246.84 298.233H261.84C265.489 298.234 269.005 299.887 271.695 302.865C274.384 305.843 276.052 309.931 276.37 314.321L279.7 360.22H360L363.33 314.321C363.643 309.929 365.31 305.838 368.001 302.859C370.691 299.879 374.21 298.228 377.86 298.233H392.86C393.711 298.232 394.553 298.445 395.331 298.859C396.11 299.273 396.809 299.878 397.384 300.635C397.959 301.393 398.397 302.287 398.67 303.261C398.943 304.234 399.045 305.265 398.97 306.289L398.21 316.858C398.09 318.545 397.495 320.131 396.523 321.351C395.551 322.572 394.261 323.352 392.87 323.561L391.15 323.827C390.11 323.982 389.146 324.563 388.418 325.473C387.69 326.383 387.243 327.567 387.15 328.828L382.95 386.805C382.805 388.844 382.032 390.743 380.784 392.127C379.536 393.511 377.904 394.28 376.21 394.281H263.48C261.785 394.28 260.151 393.512 258.902 392.128C257.652 390.744 256.878 388.845 256.73 386.805L252.53 328.828C252.439 327.566 251.992 326.381 251.264 325.471C250.536 324.561 249.57 323.98 248.53 323.827L246.8 323.561C245.411 323.349 244.124 322.568 243.154 321.348C242.184 320.128 241.589 318.543 241.47 316.858L240.7 306.289C240.626 305.263 240.731 304.229 241.006 303.254C241.281 302.279 241.722 301.384 242.3 300.626C242.877 299.868 243.579 299.264 244.361 298.852C245.143 298.44 245.987 298.229 246.84 298.233Z" fill="#F0F0F0"/>
<path d="M111.16 92.1717C111.16 92.1717 109.99 82.835 115.63 76.8561C121.27 70.8772 120.77 67.314 119.16 66.8429C117.55 66.3719 116.06 72.3628 113.58 74.0176C113.58 74.0176 113.51 65.4901 116.02 62.3497C118.53 59.2093 119.86 51.1045 117.46 50.9717C115.06 50.8388 114.82 55.8031 114.33 59.2817C113.84 62.7604 111.16 67.7367 111.16 67.7367C111.16 67.7367 110.64 60.1151 109.02 56.9747C107.4 53.8343 111.73 46.6475 110.02 43.5071C108.31 40.3667 105.38 46.3456 105.63 53.0854C105.88 59.8253 109.63 66.9879 108.72 74.0297C108.72 74.0297 107.08 69.0895 105.61 68.6426C104.14 68.1957 102.61 64.9224 101.61 63.7146C100.61 62.5067 99.39 66.698 101.61 70.5873C103.83 74.4766 109.54 84.8763 108.67 93.283L111.16 92.1717Z" fill="#E6E6E6"/>
<path d="M114.53 87.9201L116.38 101.907C116.513 102.924 116.462 103.963 116.231 104.953C115.999 105.943 115.593 106.862 115.04 107.644C114.487 108.427 113.8 109.056 113.027 109.487C112.254 109.919 111.412 110.143 110.56 110.145H108.56C107.708 110.144 106.867 109.919 106.094 109.488C105.321 109.056 104.635 108.427 104.083 107.644C103.53 106.861 103.125 105.943 102.895 104.952C102.665 103.962 102.616 102.923 102.75 101.907L104.6 87.9201H114.53Z" fill="#E6E6E6"/>
<path d="M86.62 113.08L217.06 113.08V104.987L86.62 104.987V113.08Z" fill="#E0E0E0"/>
<path d="M205.31 104.987H211.06V75.153H205.31V104.987Z" fill="#EBEBEB"/>
<path d="M177.52 104.987H183.27V75.153H177.52V104.987Z" fill="#EBEBEB"/>
<path d="M141.781 103.802L147.448 104.982L151.643 75.5811L145.977 74.4013L141.781 103.802Z" fill="#EBEBEB"/>
<path d="M198.19 104.975H203.94V79.0665H198.19V104.975Z" fill="#EBEBEB"/>
<path d="M184.98 104.975H190.73V79.0665H184.98V104.975Z" fill="#EBEBEB"/>
<path d="M151.64 104.975H157.39V79.0665H151.64V104.975Z" fill="#EBEBEB"/>
<path d="M165.334 103.461L170.947 104.968L175.601 79.6761L169.988 78.1693L165.334 103.461Z" fill="#EBEBEB"/>
<path d="M193.23 104.987H196.1V73.6674H193.23V104.987Z" fill="#EBEBEB"/>
<path d="M159.04 104.987H161.91V73.6674H159.04V104.987Z" fill="#EBEBEB"/>
<path d="M217.06 165.416H86.62V173.509H217.06V165.416Z" fill="#E0E0E0"/>
<path d="M98.38 135.57H92.63V165.404H98.38V135.57Z" fill="#EBEBEB"/>
<path d="M126.16 135.57H120.41V165.404H126.16V135.57Z" fill="#EBEBEB"/>
<path d="M157.713 134.822L152.046 136.002L156.242 165.403L161.908 164.223L157.713 134.822Z" fill="#EBEBEB"/>
<path d="M105.5 139.508H99.75V165.416H105.5V139.508Z" fill="#EBEBEB"/>
<path d="M118.71 139.508H112.96V165.416H118.71V139.508Z" fill="#EBEBEB"/>
<path d="M152.04 139.508H146.29V165.416H152.04V139.508Z" fill="#EBEBEB"/>
<path d="M133.728 138.6L128.115 140.107L132.769 165.399L138.382 163.892L133.728 138.6Z" fill="#EBEBEB"/>
<path d="M110.46 134.097H107.59V165.416H110.46V134.097Z" fill="#EBEBEB"/>
<path d="M144.64 134.097H141.77V165.416H144.64V134.097Z" fill="#EBEBEB"/>
<path d="M204.54 141.791H176.54V165.139H204.54V141.791Z" fill="#EBEBEB"/>
<path d="M271.56 64.5238L430.88 64.5238C432.051 64.5238 433 63.3774 433 61.9632V59.2213C433 57.8071 432.051 56.6607 430.88 56.6607L271.56 56.6607C270.389 56.6607 269.44 57.8071 269.44 59.2213V61.9632C269.44 63.3774 270.389 64.5238 271.56 64.5238Z" fill="#E0E0E0"/>
<path d="M279.15 217.403L423.28 217.403V62.9174L279.15 62.9174V217.403Z" fill="#E6E6E6"/>
<path d="M419.67 67.157H282.94V213.248H419.67V67.157Z" fill="#F0F0F0"/>
<path d="M387.58 67.157L419.67 212.933V144.436L402.73 67.157H387.58Z" fill="white"/>
<path d="M376.22 67.157L408.59 213.248H413.75L381.38 67.157H376.22Z" fill="white"/>
<path d="M282.94 159.341V182.689L289.49 213.248H294.66L282.94 159.341Z" fill="white"/>
<path d="M371.98 216.509H374.28V64.5238H371.98V216.509Z" fill="#E6E6E6"/>
<path d="M327.35 216.509H329.65V64.5238H327.35V216.509Z" fill="#E6E6E6"/>
<path d="M302.64 59.1851C302.64 59.1851 299.32 111.449 280.25 138.082C280.25 138.082 294.14 205.348 294.13 228.793L268.32 223.043L277.62 138.493L273.17 59.1851H302.64Z" fill="#E0E0E0"/>
<path d="M399.79 59.1851C399.79 59.1851 403.1 111.449 422.17 138.082C422.17 138.082 408.28 205.348 408.29 228.793L434.11 223.043L424.8 138.493L429.25 59.1851H399.79Z" fill="#E0E0E0"/>
<path d="M250 223.346C357.082 223.346 443.89 217.224 443.89 209.673C443.89 202.122 357.082 196 250 196C142.918 196 56.11 202.122 56.11 209.673C56.11 217.224 142.918 223.346 250 223.346Z" fill="#F5F5F5"/>
<path d="M135.62 296.678H98L93 252.494H140.62L135.62 296.678Z" fill="#1C5E7F"/>
<path d="M116.34 252.567C116.34 252.567 111.07 222.503 120.66 206.221C130.25 189.939 111.99 206.04 109.89 221.283C109.89 221.283 106.75 194.022 116.05 174.853C125.35 155.684 107.95 171.423 106.47 191.183C106.47 191.183 103.62 166.869 107.89 153.208C112.16 139.547 104.73 148.377 101.89 156.892C99.05 165.408 102.78 186.666 102.78 186.666C102.78 186.666 95.32 147.447 88.26 150.563C81.2 153.679 98.82 179.382 101.26 192.753C101.26 192.753 92.94 174.756 86.62 178.501C80.3 182.245 96.4 184.117 103.78 210.932L106.37 223.506C106.37 223.506 98.7 205.75 93.69 211.355C88.68 216.959 108.55 226.622 113.16 253.521L116.34 252.567Z" fill="#01BDDF"/>
<path d="M115.3 254.294C115.3 254.294 114.2 216.403 98.69 200.375C83.18 184.347 109 197.005 115.3 214.507C115.3 214.507 112.3 180.687 96.48 161.12C80.66 141.552 105.34 154.09 111.98 177.22C111.98 177.22 109.4 147.024 100.91 132.252C92.42 117.48 103.49 125.27 109.03 134.498C114.57 143.726 115.3 170.481 115.3 170.481C115.3 170.481 114.57 120.825 123.79 122.021C133.01 123.217 118.26 160.335 118.63 177.22C118.63 177.22 124.16 152.677 132.63 154.887C141.1 157.097 122.3 165.13 120.08 199.904V215.896C120.08 215.896 124.9 191.92 132.28 196.751C139.66 201.583 118.28 220.389 119.36 254.27L115.3 254.294Z" fill="#01BDDF"/>
<path opacity="0.2" d="M115.3 254.294C115.3 254.294 114.2 216.403 98.69 200.375C83.18 184.347 109 197.005 115.3 214.507C115.3 214.507 112.3 180.687 96.48 161.12C80.66 141.552 105.34 154.09 111.98 177.22C111.98 177.22 109.4 147.024 100.91 132.252C92.42 117.48 103.49 125.27 109.03 134.498C114.57 143.726 115.3 170.481 115.3 170.481C115.3 170.481 114.57 120.825 123.79 122.021C133.01 123.217 118.26 160.335 118.63 177.22C118.63 177.22 124.16 152.677 132.63 154.887C141.1 157.097 122.3 165.13 120.08 199.904V215.896C120.08 215.896 124.9 191.92 132.28 196.751C139.66 201.583 118.28 220.389 119.36 254.27L115.3 254.294Z" fill="white"/>
<path d="M88.29 248.907V253.11C88.29 254.459 88.7336 255.752 89.5231 256.706C90.3126 257.66 91.3834 258.195 92.5 258.195H141.6C142.717 258.195 143.787 257.66 144.577 256.706C145.366 255.752 145.81 254.459 145.81 253.11V248.907H88.29Z" fill="#1C5E7F"/>
<path opacity="0.2" d="M88.29 248.907V253.11C88.29 254.459 88.7336 255.752 89.5231 256.706C90.3126 257.66 91.3834 258.195 92.5 258.195H141.6C142.717 258.195 143.787 257.66 144.577 256.706C145.366 255.752 145.81 254.459 145.81 253.11V248.907H88.29Z" fill="white"/>
<path d="M393.82 29.8314V387.925C393.82 388.62 393.706 389.308 393.484 389.948C393.262 390.589 392.937 391.17 392.528 391.658C392.118 392.146 391.633 392.53 391.099 392.79C390.566 393.049 389.995 393.177 389.42 393.168H251.42C250.909 393.175 250.401 393.059 249.927 392.827C249.453 392.594 249.023 392.25 248.66 391.815C248.283 391.362 247.985 390.824 247.782 390.231C247.58 389.638 247.477 389.002 247.48 388.36V29.3966C247.463 28.8414 247.536 28.2874 247.696 27.7664C247.856 27.2455 248.099 26.7677 248.412 26.3605C248.725 25.9533 249.102 25.6246 249.52 25.3932C249.938 25.1618 250.39 25.0323 250.85 25.0121H290.04C290.587 25.0247 291.119 25.2335 291.568 25.6121C292.016 25.9906 292.362 26.5217 292.56 27.1379L294.19 31.9694C294.389 32.5842 294.734 33.1137 295.183 33.4902C295.632 33.8666 296.164 34.0731 296.71 34.0831H344.66C345.204 34.0792 345.734 33.8794 346.183 33.5092C346.632 33.1391 346.979 32.6156 347.18 32.0056L348.81 27.1742C349.007 26.5557 349.351 26.022 349.8 25.6412C350.249 25.2604 350.782 25.0498 351.33 25.0362H390C391.024 25.0919 391.992 25.6205 392.702 26.5129C393.413 27.4052 393.813 28.5931 393.82 29.8314Z" fill="#01BDDF"/>
<path opacity="0.6" d="M393.82 133.055V387.913C393.82 388.608 393.706 389.296 393.484 389.936C393.262 390.577 392.937 391.158 392.528 391.646C392.118 392.134 391.633 392.518 391.099 392.777C390.566 393.037 389.995 393.165 389.42 393.155H251.42C250.909 393.163 250.401 393.047 249.927 392.814C249.453 392.582 249.023 392.238 248.66 391.803C248.283 391.35 247.985 390.812 247.782 390.219C247.58 389.626 247.477 388.99 247.48 388.348V133.055H393.82Z" fill="white"/>
<path d="M393.82 29.8314V45.2075H247.51V29.3966C247.493 28.8414 247.566 28.2874 247.726 27.7664C247.886 27.2455 248.129 26.7677 248.442 26.3605C248.755 25.9533 249.132 25.6246 249.55 25.3932C249.968 25.1618 250.42 25.0323 250.88 25.0121H290.07C290.617 25.0247 291.149 25.2335 291.598 25.6121C292.046 25.9906 292.392 26.5217 292.59 27.1379L294.22 31.9694C294.419 32.5842 294.764 33.1137 295.213 33.4902C295.662 33.8666 296.194 34.0731 296.74 34.0831H344.69C345.234 34.0792 345.764 33.8794 346.213 33.5092C346.662 33.1391 347.009 32.6156 347.21 32.0056L348.84 27.1742C349.037 26.5557 349.381 26.022 349.83 25.6412C350.279 25.2604 350.812 25.0498 351.36 25.0362H390C391.024 25.0919 391.992 25.6205 392.702 26.5129C393.413 27.4052 393.813 28.5931 393.82 29.8314Z" fill="#1C5E7F"/>
<path d="M393.82 368.551V387.877C393.82 388.572 393.706 389.259 393.484 389.9C393.262 390.541 392.937 391.122 392.528 391.61C392.118 392.097 391.633 392.482 391.099 392.741C390.566 393 389.995 393.129 389.42 393.119H251.42C250.909 393.126 250.401 393.011 249.927 392.778C249.453 392.546 249.023 392.202 248.66 391.766C248.283 391.314 247.985 390.776 247.782 390.183C247.58 389.589 247.477 388.954 247.48 388.312V368.503L393.82 368.551Z" fill="#1C5E7F"/>
<path opacity="0.6" d="M265.7 39.4339H267.74V36.1485H265.7V39.4339Z" fill="white"/>
<path opacity="0.6" d="M262.39 39.4339H264.43V35.0615H262.39V39.4339Z" fill="white"/>
<path opacity="0.6" d="M259.06 39.4218H261.1V33.9502H259.06V39.4218Z" fill="white"/>
<path opacity="0.6" d="M255.74 39.4339H257.78V32.8632H255.74V39.4339Z" fill="white"/>
<path opacity="0.6" d="M375.14 34.9528H373.93V38.2381H375.14V34.9528Z" fill="white"/>
<path opacity="0.6" d="M375.97 39.4218H385.6V33.7449H375.97V39.4218Z" fill="white"/>
<path d="M385.6 52.1889H376C375.735 52.1889 375.48 52.0616 375.293 51.8351C375.105 51.6086 375 51.3014 375 50.981C375 50.6607 375.105 50.3535 375.293 50.1269C375.48 49.9004 375.735 49.7731 376 49.7731H385.63C385.895 49.7731 386.15 49.9004 386.337 50.1269C386.525 50.3535 386.63 50.6607 386.63 50.981C386.63 51.3014 386.525 51.6086 386.337 51.8351C386.15 52.0616 385.895 52.1889 385.63 52.1889H385.6Z" fill="white"/>
<path d="M385.6 57.0203H376C375.735 57.0203 375.48 56.8931 375.293 56.6666C375.105 56.44 375 56.1328 375 55.8125C375 55.4921 375.105 55.1849 375.293 54.9584C375.48 54.7319 375.735 54.6046 376 54.6046H385.63C385.895 54.6046 386.15 54.7319 386.337 54.9584C386.525 55.1849 386.63 55.4921 386.63 55.8125C386.63 56.1328 386.525 56.44 386.337 56.6666C386.15 56.8931 385.895 57.0203 385.63 57.0203H385.6Z" fill="white"/>
<path d="M385.6 61.8518H376C375.735 61.8518 375.48 61.7245 375.293 61.498C375.105 61.2715 375 60.9643 375 60.6439C375 60.3236 375.105 60.0164 375.293 59.7899C375.48 59.5633 375.735 59.4361 376 59.4361H385.63C385.895 59.4361 386.15 59.5633 386.337 59.7899C386.525 60.0164 386.63 60.3236 386.63 60.6439C386.63 60.9643 386.525 61.2715 386.337 61.498C386.15 61.7245 385.895 61.8518 385.63 61.8518H385.6Z" fill="white"/>
<path d="M269.35 56.4889L262.52 48.9881L255.7 56.4889H257.2V62.649H267.85V56.4889H269.35Z" fill="white"/>
<path d="M344.91 343.5H295.28C295.015 343.5 294.76 343.373 294.573 343.147C294.385 342.92 294.28 342.613 294.28 342.292C294.28 341.972 294.385 341.665 294.573 341.438C294.76 341.212 295.015 341.085 295.28 341.085H344.91C345.175 341.085 345.43 341.212 345.617 341.438C345.805 341.665 345.91 341.972 345.91 342.292C345.91 342.613 345.805 342.92 345.617 343.147C345.43 343.373 345.175 343.5 344.91 343.5Z" fill="#1C5E7F"/>
<path d="M364.91 348.332H275.28C275.015 348.332 274.76 348.205 274.573 347.978C274.385 347.751 274.28 347.444 274.28 347.124C274.28 346.804 274.385 346.496 274.573 346.27C274.76 346.043 275.015 345.916 275.28 345.916H364.91C365.175 345.916 365.43 346.043 365.617 346.27C365.805 346.496 365.91 346.804 365.91 347.124C365.91 347.444 365.805 347.751 365.617 347.978C365.43 348.205 365.175 348.332 364.91 348.332Z" fill="#1C5E7F"/>
<path d="M334.91 353.163H305.28C305.015 353.163 304.76 353.036 304.573 352.809C304.385 352.583 304.28 352.276 304.28 351.955C304.28 351.635 304.385 351.328 304.573 351.101C304.76 350.875 305.015 350.747 305.28 350.747H334.91C335.175 350.747 335.43 350.875 335.617 351.101C335.805 351.328 335.91 351.635 335.91 351.955C335.91 352.276 335.805 352.583 335.617 352.809C335.43 353.036 335.175 353.163 334.91 353.163Z" fill="#1C5E7F"/>
<path d="M335.156 113.886C343.474 103.839 343.474 87.5493 335.156 77.5022C326.837 67.455 313.351 67.455 305.033 77.5022C296.715 87.5493 296.715 103.839 305.033 113.886C313.351 123.933 326.837 123.933 335.156 113.886Z" fill="white"/>
<path d="M320.87 109.115L320.69 107.799H320.68L320.87 109.115Z" fill="#1C5E7F"/>
<path d="M325.54 102.508C325.287 101.654 324.89 100.872 324.373 100.213C323.857 99.5538 323.232 99.0316 322.54 98.6794C322.784 97.8191 322.978 96.9392 323.12 96.0463L320.94 95.6114C320.831 96.325 320.677 97.0275 320.48 97.7131C319.657 97.4387 318.812 97.2687 317.96 97.2058C316.996 97.1351 316.029 97.2081 315.08 97.4232C314.858 96.0583 314.701 94.6791 314.61 93.2923H325.61V90.623H314.55C314.524 89.3758 314.578 88.128 314.71 86.8907L312.52 86.48C312.372 87.8534 312.308 89.2382 312.33 90.623H307.61V93.2923H312.42C312.524 94.9639 312.714 96.626 312.99 98.2687C311.143 99.2525 309.686 101.068 308.93 103.33C308.06 105.927 308.17 107.823 309.26 108.995C310.97 110.818 314.14 109.635 316.01 108.499C316.43 109.441 316.88 110.384 317.39 111.326L319.24 109.864C318.73 108.934 318.29 107.992 317.88 107.062C319.525 105.469 320.849 103.445 321.75 101.143C322.497 101.558 323.089 102.295 323.41 103.209C323.543 103.658 323.594 104.136 323.561 104.611C323.529 105.086 323.412 105.547 323.22 105.963C322.584 106.919 321.687 107.569 320.69 107.799L321.05 110.42C322.651 110.066 324.08 108.991 325.05 107.412C325.42 106.686 325.655 105.872 325.74 105.025C325.824 104.179 325.756 103.32 325.54 102.508ZM310.73 107.002C310.51 106.76 310.44 105.927 310.98 104.332C311.456 102.859 312.359 101.645 313.52 100.914C313.924 102.684 314.435 104.416 315.05 106.096C313.18 107.231 311.23 107.533 310.73 107.002ZM316.92 104.586C316.407 103.112 315.976 101.599 315.63 100.056C316.197 99.9248 316.773 99.8601 317.35 99.8631H317.88C318.484 99.9044 319.083 100.014 319.67 100.189C318.999 101.853 318.065 103.343 316.92 104.574V104.586Z" fill="#1C5E7F"/>
<path d="M329 102.991L327.37 97.4595H321L319.37 102.991H315.76L322.52 80.0421H325.8L332.56 102.991H329ZM324.17 86.6974L322.17 93.4252H326.11L324.17 86.6974Z" fill="#01BDDF"/>
<path d="M311.55 142.199H257.57C256.57 142.199 255.76 143.177 255.76 144.385V155.219C255.76 156.427 256.57 157.405 257.57 157.405H311.55C312.55 157.405 313.36 156.427 313.36 155.219V144.385C313.36 143.177 312.55 142.199 311.55 142.199Z" fill="white"/>
<path d="M263.38 152.755V153.48H259.82V147.561H263.28V148.298H260.52V150.122H263V150.835H260.54V152.755H263.38Z" fill="#1C5E7F"/>
<path d="M267.93 150.907V153.48H267.26V151.064C267.26 150.182 266.9 149.748 266.26 149.748C266.098 149.734 265.935 149.764 265.783 149.834C265.632 149.905 265.495 150.015 265.382 150.157C265.27 150.299 265.184 150.469 265.132 150.655C265.08 150.841 265.062 151.038 265.08 151.233V153.54H264.41V149.059H265.06V149.736C265.219 149.498 265.423 149.31 265.654 149.186C265.885 149.062 266.137 149.006 266.39 149.023C266.598 149.005 266.807 149.041 267.002 149.129C267.197 149.218 267.374 149.357 267.52 149.536C267.667 149.715 267.779 149.93 267.85 150.167C267.921 150.404 267.948 150.656 267.93 150.907Z" fill="#1C5E7F"/>
<path d="M272.75 148.999V152.876C272.787 153.192 272.763 153.513 272.679 153.816C272.595 154.118 272.453 154.392 272.266 154.616C272.078 154.841 271.85 155.009 271.599 155.107C271.348 155.206 271.081 155.232 270.82 155.183C270.183 155.213 269.557 154.974 269.05 154.507L269.38 153.879C269.782 154.269 270.284 154.478 270.8 154.47C271.68 154.47 272.08 153.975 272.08 152.961V152.61C271.912 152.836 271.705 153.015 271.473 153.134C271.242 153.253 270.991 153.309 270.74 153.299C270.493 153.321 270.245 153.282 270.011 153.183C269.777 153.084 269.563 152.928 269.381 152.724C269.2 152.521 269.055 152.274 268.956 152C268.857 151.726 268.806 151.43 268.806 151.131C268.806 150.832 268.857 150.536 268.956 150.261C269.055 149.987 269.2 149.741 269.381 149.537C269.563 149.334 269.777 149.178 270.011 149.079C270.245 148.98 270.493 148.94 270.74 148.963C271 148.949 271.259 149.008 271.497 149.136C271.735 149.264 271.944 149.457 272.11 149.699V148.999H272.75ZM272.09 151.125C272.104 150.815 272.041 150.508 271.908 150.243C271.776 149.977 271.581 149.766 271.348 149.636C271.115 149.506 270.855 149.464 270.602 149.515C270.349 149.566 270.115 149.707 269.929 149.921C269.743 150.134 269.615 150.411 269.561 150.713C269.507 151.016 269.529 151.332 269.625 151.619C269.721 151.906 269.886 152.152 270.099 152.324C270.312 152.497 270.564 152.588 270.82 152.586C270.985 152.601 271.151 152.575 271.306 152.508C271.462 152.441 271.605 152.335 271.724 152.197C271.844 152.059 271.939 151.892 272.002 151.708C272.065 151.523 272.095 151.324 272.09 151.125Z" fill="#1C5E7F"/>
<path d="M274 147.211H274.67V153.48H274V147.211Z" fill="#1C5E7F"/>
<path d="M275.86 147.61C275.861 147.538 275.874 147.468 275.898 147.403C275.922 147.337 275.956 147.278 275.999 147.229C276.042 147.18 276.092 147.141 276.147 147.115C276.202 147.089 276.261 147.077 276.32 147.078C276.437 147.078 276.549 147.134 276.631 147.234C276.714 147.334 276.76 147.469 276.76 147.61C276.76 147.751 276.714 147.886 276.631 147.986C276.549 148.085 276.437 148.141 276.32 148.141C276.261 148.144 276.201 148.133 276.145 148.108C276.09 148.083 276.039 148.044 275.996 147.994C275.953 147.945 275.919 147.885 275.895 147.819C275.872 147.753 275.86 147.682 275.86 147.61ZM275.98 148.999H276.65V153.48H276L275.98 148.999Z" fill="#1C5E7F"/>
<path d="M277.47 153.009L277.75 152.369C278.137 152.673 278.588 152.836 279.05 152.84C279.67 152.84 279.93 152.61 279.93 152.224C279.93 151.221 277.59 152.091 277.59 150.303C277.59 149.506 278.18 148.963 279.13 148.963C279.601 148.949 280.067 149.087 280.48 149.361L280.2 150.013C279.88 149.769 279.508 149.643 279.13 149.651C278.54 149.651 278.25 149.917 278.25 150.267C278.25 151.33 280.6 150.46 280.6 152.212C280.6 153.021 279.99 153.54 279 153.54C278.457 153.561 277.921 153.375 277.47 153.009Z" fill="#1C5E7F"/>
<path d="M285 150.907V153.48H284.32V151.064C284.32 150.182 283.96 149.748 283.32 149.748C283.158 149.734 282.995 149.764 282.843 149.834C282.692 149.905 282.555 150.015 282.442 150.157C282.33 150.299 282.244 150.469 282.192 150.655C282.14 150.841 282.122 151.038 282.14 151.233V153.54H281.47V147.211H282.14V149.627C282.302 149.402 282.504 149.224 282.731 149.107C282.958 148.989 283.204 148.936 283.45 148.95C283.664 148.928 283.88 148.965 284.081 149.057C284.282 149.148 284.464 149.293 284.612 149.481C284.761 149.669 284.873 149.894 284.94 150.141C285.007 150.388 285.028 150.65 285 150.907Z" fill="#1C5E7F"/>
<path opacity="0.4" d="M309.89 144.107H303.66C302.776 144.107 302.06 144.972 302.06 146.04V153.564C302.06 154.632 302.776 155.497 303.66 155.497H309.89C310.774 155.497 311.49 154.632 311.49 153.564V146.04C311.49 144.972 310.774 144.107 309.89 144.107Z" fill="black"/>
<path d="M304.37 147.574L306.78 152.018L309.18 147.574H304.37Z" fill="white"/>
<path d="M382.62 142.199H328.64C327.64 142.199 326.83 143.177 326.83 144.385V155.219C326.83 156.427 327.64 157.405 328.64 157.405H382.62C383.62 157.405 384.43 156.427 384.43 155.219V144.385C384.43 143.177 383.62 142.199 382.62 142.199Z" fill="white"/>
<path d="M331 147.561H331.7V153.48H331V147.561Z" fill="#1C5E7F"/>
<path d="M336.62 150.907V153.48H336V151.064C336 150.182 335.64 149.748 335 149.748C334.838 149.734 334.675 149.764 334.523 149.834C334.372 149.905 334.235 150.015 334.122 150.157C334.01 150.299 333.924 150.469 333.872 150.655C333.82 150.841 333.802 151.038 333.82 151.233V153.54H333.15V149.059H333.8V149.736C333.959 149.498 334.162 149.309 334.394 149.185C334.625 149.061 334.877 149.005 335.13 149.023C335.334 149.014 335.537 149.056 335.726 149.149C335.915 149.242 336.086 149.382 336.226 149.56C336.367 149.738 336.475 149.95 336.543 150.182C336.611 150.415 336.637 150.662 336.62 150.907Z" fill="#1C5E7F"/>
<path d="M341.39 147.211V153.48H340.75V152.779C340.597 153.028 340.395 153.227 340.163 153.36C339.932 153.492 339.676 153.554 339.42 153.54C338.941 153.498 338.493 153.239 338.166 152.814C337.839 152.39 337.658 151.831 337.658 151.251C337.658 150.672 337.839 150.113 338.166 149.689C338.493 149.264 338.941 149.005 339.42 148.963C339.668 148.95 339.915 149.008 340.14 149.131C340.366 149.255 340.565 149.441 340.72 149.675V147.259L341.39 147.211ZM340.73 151.245C340.718 150.95 340.635 150.666 340.491 150.427C340.346 150.189 340.147 150.006 339.918 149.903C339.689 149.8 339.44 149.78 339.201 149.846C338.963 149.913 338.746 150.062 338.577 150.276C338.408 150.489 338.295 150.758 338.251 151.049C338.208 151.34 338.236 151.639 338.332 151.911C338.428 152.183 338.588 152.414 338.792 152.577C338.996 152.74 339.235 152.827 339.48 152.828C339.651 152.833 339.82 152.796 339.978 152.717C340.136 152.639 340.278 152.521 340.396 152.372C340.514 152.223 340.604 152.046 340.662 151.851C340.719 151.657 340.743 151.451 340.73 151.245Z" fill="#1C5E7F"/>
<path d="M342.32 151.245C342.314 150.783 342.422 150.329 342.631 149.941C342.839 149.552 343.138 149.248 343.49 149.066C343.842 148.884 344.231 148.833 344.608 148.918C344.984 149.004 345.331 149.223 345.604 149.548C345.877 149.872 346.063 150.288 346.14 150.741C346.217 151.194 346.181 151.665 346.036 152.093C345.891 152.521 345.643 152.887 345.325 153.145C345.007 153.403 344.633 153.54 344.25 153.54C343.996 153.556 343.742 153.507 343.504 153.397C343.266 153.288 343.049 153.12 342.868 152.904C342.687 152.689 342.544 152.43 342.45 152.144C342.356 151.859 342.311 151.553 342.32 151.245ZM345.5 151.245C345.5 150.845 345.368 150.461 345.134 150.178C344.899 149.895 344.582 149.736 344.25 149.736C343.918 149.736 343.601 149.895 343.366 150.178C343.132 150.461 343 150.845 343 151.245C343 151.646 343.132 152.03 343.366 152.313C343.601 152.596 343.918 152.755 344.25 152.755C344.582 152.755 344.899 152.596 345.134 152.313C345.368 152.03 345.5 151.646 345.5 151.245Z" fill="#1C5E7F"/>
<path d="M350.63 150.907V153.48H350V151.064C350 150.182 349.63 149.748 349 149.748C348.837 149.732 348.674 149.76 348.521 149.83C348.369 149.9 348.231 150.01 348.118 150.152C348.005 150.294 347.92 150.465 347.868 150.652C347.817 150.839 347.8 151.038 347.82 151.233V153.54H347.15V149.059H347.79V149.736C347.951 149.497 348.156 149.309 348.389 149.185C348.622 149.061 348.876 149.005 349.13 149.023C349.335 149.012 349.539 149.053 349.729 149.145C349.919 149.237 350.091 149.377 350.233 149.555C350.375 149.733 350.484 149.946 350.552 150.179C350.621 150.413 350.647 150.661 350.63 150.907Z" fill="#1C5E7F"/>
<path d="M355.24 151.511H352.24C352.285 151.896 352.449 152.247 352.7 152.491C352.95 152.736 353.269 152.856 353.59 152.828C353.79 152.836 353.99 152.791 354.174 152.697C354.359 152.603 354.525 152.463 354.66 152.284L355.03 152.804C354.847 153.05 354.622 153.244 354.369 153.371C354.116 153.499 353.843 153.556 353.57 153.54C353.311 153.564 353.05 153.522 352.806 153.417C352.561 153.311 352.337 153.145 352.148 152.929C351.96 152.713 351.811 152.451 351.711 152.161C351.612 151.871 351.564 151.559 351.57 151.245C351.56 150.945 351.602 150.644 351.692 150.364C351.782 150.083 351.92 149.828 352.095 149.614C352.27 149.4 352.48 149.232 352.711 149.12C352.943 149.007 353.191 148.954 353.44 148.963C353.689 148.955 353.936 149.011 354.166 149.125C354.397 149.24 354.604 149.411 354.777 149.628C354.949 149.845 355.082 150.103 355.167 150.386C355.252 150.669 355.287 150.97 355.27 151.27C355.25 151.342 355.24 151.439 355.24 151.511ZM352.24 150.931H354.63C354.603 150.571 354.465 150.237 354.244 149.993C354.023 149.749 353.734 149.614 353.435 149.614C353.136 149.614 352.847 149.749 352.626 149.993C352.405 150.237 352.267 150.571 352.24 150.931Z" fill="#1C5E7F"/>
<path d="M355.71 153.009L355.99 152.369C356.377 152.672 356.828 152.835 357.29 152.84C357.92 152.84 358.18 152.61 358.18 152.224C358.18 151.221 355.83 152.091 355.83 150.303C355.83 149.506 356.42 148.963 357.38 148.963C357.851 148.951 358.317 149.088 358.73 149.361L358.44 150.013C358.121 149.767 357.749 149.641 357.37 149.651C356.78 149.651 356.49 149.917 356.49 150.267C356.49 151.33 358.85 150.46 358.85 152.212C358.85 153.021 358.23 153.54 357.24 153.54C356.697 153.557 356.163 153.371 355.71 153.009Z" fill="#1C5E7F"/>
<path d="M359.57 147.61C359.586 147.478 359.641 147.358 359.725 147.271C359.808 147.184 359.915 147.136 360.025 147.136C360.135 147.136 360.242 147.184 360.325 147.271C360.409 147.358 360.464 147.478 360.48 147.61C360.481 147.683 360.47 147.755 360.448 147.823C360.425 147.89 360.391 147.951 360.348 148.002C360.305 148.053 360.253 148.093 360.197 148.119C360.141 148.145 360.08 148.157 360.02 148.153C359.96 148.157 359.9 148.145 359.844 148.119C359.789 148.093 359.738 148.053 359.695 148.002C359.653 147.951 359.62 147.889 359.598 147.822C359.577 147.754 359.567 147.682 359.57 147.61ZM359.69 148.999H360.36V153.48H359.69V148.999Z" fill="#1C5E7F"/>
<path d="M364.58 150.774V153.48H363.94V152.888C363.802 153.113 363.618 153.292 363.406 153.406C363.194 153.52 362.961 153.566 362.73 153.54C361.88 153.54 361.35 152.997 361.35 152.212C361.35 151.427 361.74 150.907 362.84 150.907H363.91V150.714C363.91 150.025 363.58 149.627 362.91 149.627C362.485 149.618 362.071 149.789 361.74 150.11L361.46 149.494C361.905 149.108 362.442 148.909 362.99 148.926C364 148.963 364.58 149.506 364.58 150.774ZM363.91 152.115V151.487H362.91C362.25 151.487 362.06 151.801 362.06 152.188C362.06 152.574 362.37 152.912 362.88 152.912C363.098 152.921 363.314 152.849 363.497 152.707C363.681 152.564 363.825 152.358 363.91 152.115Z" fill="#1C5E7F"/>
<path d="M369.35 150.907V153.48H368.68V151.064C368.68 150.182 368.31 149.748 367.68 149.748C367.518 149.734 367.356 149.763 367.204 149.834C367.053 149.905 366.917 150.015 366.805 150.157C366.693 150.299 366.609 150.469 366.558 150.655C366.507 150.841 366.49 151.039 366.51 151.233V153.54H365.84V149.059H366.48V149.736C366.641 149.497 366.846 149.309 367.079 149.185C367.312 149.061 367.566 149.005 367.82 149.023C368.027 149.006 368.235 149.044 368.429 149.133C368.622 149.223 368.798 149.362 368.943 149.541C369.089 149.72 369.2 149.934 369.27 150.17C369.341 150.406 369.368 150.657 369.35 150.907Z" fill="#1C5E7F"/>
<path opacity="0.4" d="M380.9 144.107H374.67C373.786 144.107 373.07 144.972 373.07 146.04V153.564C373.07 154.632 373.786 155.497 374.67 155.497H380.9C381.784 155.497 382.5 154.632 382.5 153.564V146.04C382.5 144.972 381.784 144.107 380.9 144.107Z" fill="black"/>
<path d="M375.38 147.574L377.78 152.018L380.19 147.574H375.38Z" fill="white"/>
<path d="M382.18 165.027H258.01C256.767 165.027 255.76 166.244 255.76 167.745V238.9C255.76 240.401 256.767 241.617 258.01 241.617H382.18C383.423 241.617 384.43 240.401 384.43 238.9V167.745C384.43 166.244 383.423 165.027 382.18 165.027Z" fill="white"/>
<g opacity="0.4">
<path d="M266.85 180.826V182.034H261.24V172.709H266.69V173.917H262.35V176.78H266.22V177.915H262.35V180.923L266.85 180.826Z" fill="black"/>
<path d="M274 177.927V181.985H273V178.072C273 176.683 272.43 176.007 271.42 176.007C271.164 175.983 270.907 176.028 270.667 176.139C270.428 176.25 270.212 176.424 270.035 176.648C269.857 176.872 269.724 177.141 269.644 177.436C269.563 177.73 269.538 178.042 269.57 178.35V181.973H268.51V174.871H269.51V175.946C269.759 175.567 270.079 175.266 270.445 175.068C270.811 174.87 271.21 174.782 271.61 174.811C271.946 174.785 272.282 174.85 272.595 175.002C272.908 175.153 273.188 175.386 273.417 175.684C273.646 175.982 273.817 176.338 273.918 176.726C274.019 177.114 274.047 177.524 274 177.927Z" fill="black"/>
<path d="M279.28 181.575C278.919 181.931 278.466 182.123 278 182.118C277.752 182.152 277.501 182.119 277.265 182.02C277.029 181.921 276.814 181.76 276.637 181.548C276.459 181.336 276.323 181.079 276.239 180.795C276.155 180.511 276.124 180.208 276.15 179.908V176.031H275.15V174.871H276.15V173.337H277.21V174.871H278.89V175.934H277.21V179.751C277.188 179.907 277.196 180.067 277.234 180.219C277.271 180.371 277.336 180.51 277.425 180.627C277.514 180.743 277.624 180.834 277.746 180.891C277.868 180.949 277.999 180.972 278.13 180.959C278.426 180.966 278.715 180.851 278.95 180.633L279.28 181.575Z" fill="black"/>
<path d="M285.63 178.881H280.88C280.959 179.479 281.22 180.019 281.613 180.394C282.005 180.77 282.5 180.954 283 180.91C283.316 180.925 283.63 180.857 283.922 180.711C284.213 180.565 284.475 180.345 284.69 180.065L285.28 180.886C284.85 181.412 284.304 181.777 283.706 181.939C283.109 182.1 282.486 182.05 281.912 181.795C281.337 181.541 280.836 181.092 280.467 180.502C280.097 179.913 279.876 179.208 279.83 178.471C279.811 177.996 279.873 177.521 280.012 177.076C280.151 176.632 280.365 176.227 280.64 175.887C280.916 175.547 281.246 175.279 281.61 175.1C281.975 174.921 282.367 174.835 282.76 174.847C283.152 174.834 283.542 174.92 283.904 175.1C284.267 175.279 284.595 175.548 284.867 175.889C285.139 176.23 285.349 176.635 285.484 177.08C285.619 177.525 285.675 177.998 285.65 178.471C285.65 178.603 285.64 178.76 285.63 178.881ZM280.88 177.963H284.64C284.592 177.401 284.373 176.881 284.026 176.503C283.679 176.124 283.228 175.915 282.76 175.915C282.292 175.915 281.841 176.124 281.494 176.503C281.147 176.881 280.928 177.401 280.88 177.963Z" fill="black"/>
<path d="M290.26 174.871V176.079C290.18 176.067 290.1 176.067 290.02 176.079C289.76 176.06 289.5 176.11 289.258 176.228C289.017 176.345 288.8 176.526 288.624 176.758C288.447 176.989 288.316 177.265 288.239 177.566C288.163 177.866 288.142 178.184 288.18 178.495V182.01H287.12V174.871H288.12V176.079C288.347 175.656 288.668 175.318 289.047 175.105C289.425 174.891 289.845 174.81 290.26 174.871Z" fill="black"/>
<path d="M297.9 181.575C297.533 181.913 297.081 182.088 296.62 182.07C296.372 182.104 296.121 182.071 295.885 181.972C295.649 181.873 295.434 181.712 295.257 181.5C295.079 181.288 294.943 181.03 294.859 180.746C294.775 180.463 294.744 180.16 294.77 179.86V175.982H293.77V174.871H294.77V173.337H295.83V174.871H297.5V175.934H295.83V179.751C295.808 179.906 295.816 180.065 295.853 180.216C295.89 180.367 295.954 180.506 296.042 180.622C296.13 180.738 296.238 180.829 296.359 180.887C296.48 180.946 296.61 180.97 296.74 180.959C297.039 180.968 297.332 180.853 297.57 180.633L297.9 181.575Z" fill="black"/>
<path d="M304.24 178.881H299.5C299.572 179.485 299.831 180.034 300.224 180.417C300.617 180.8 301.116 180.99 301.62 180.947C301.935 180.96 302.25 180.892 302.541 180.746C302.833 180.6 303.095 180.38 303.31 180.101L303.89 180.923C303.46 181.448 302.914 181.814 302.317 181.975C301.719 182.136 301.096 182.086 300.522 181.832C299.947 181.577 299.446 181.128 299.077 180.539C298.707 179.949 298.486 179.244 298.44 178.507C298.422 178.031 298.485 177.556 298.626 177.112C298.767 176.667 298.981 176.262 299.257 175.922C299.533 175.582 299.864 175.315 300.229 175.136C300.594 174.957 300.986 174.871 301.38 174.883C301.772 174.87 302.162 174.957 302.524 175.136C302.887 175.315 303.215 175.584 303.487 175.925C303.759 176.266 303.969 176.672 304.104 177.116C304.239 177.561 304.295 178.034 304.27 178.507C304.27 178.603 304.25 178.76 304.24 178.881ZM299.5 177.963H303.25C303.192 177.412 302.97 176.905 302.625 176.538C302.279 176.17 301.835 175.967 301.375 175.967C300.915 175.967 300.471 176.17 300.125 176.538C299.78 176.905 299.558 177.412 299.5 177.963Z" fill="black"/>
<path d="M309.3 181.985L307.61 179.28L305.9 181.985H304.72L307.03 178.362L304.83 174.907H306L307.61 177.456L309.21 174.907H310.37L308.16 178.362L310.49 181.985H309.3Z" fill="black"/>
<path d="M315 181.575C314.633 181.913 314.181 182.088 313.72 182.07C313.471 182.106 313.219 182.074 312.982 181.976C312.744 181.878 312.529 181.717 312.35 181.505C312.171 181.293 312.034 181.035 311.95 180.75C311.865 180.465 311.834 180.161 311.86 179.86V175.982H310.86V174.871H311.86V173.337H312.92V174.871H314.6V175.934H312.92V179.751C312.898 179.907 312.906 180.067 312.944 180.219C312.981 180.371 313.046 180.51 313.135 180.627C313.224 180.743 313.334 180.834 313.456 180.891C313.578 180.949 313.709 180.972 313.84 180.959C314.139 180.968 314.432 180.853 314.67 180.633L315 181.575Z" fill="black"/>
</g>
<path d="M375.34 231.049C375.594 231.05 375.845 230.991 376.08 230.874C376.315 230.758 376.528 230.586 376.708 230.369C376.887 230.153 377.029 229.895 377.126 229.611C377.222 229.328 377.271 229.024 377.27 228.717V225.348C377.235 224.76 377.017 224.21 376.66 223.809C376.303 223.407 375.833 223.184 375.345 223.184C374.857 223.184 374.387 223.407 374.03 223.809C373.673 224.21 373.455 224.76 373.42 225.348V228.717C373.419 229.023 373.467 229.326 373.563 229.609C373.659 229.891 373.8 230.149 373.979 230.365C374.157 230.582 374.369 230.754 374.603 230.871C374.837 230.988 375.087 231.049 375.34 231.049Z" fill="#1C5E7F"/>
<path d="M378.21 225.976C378.108 225.976 378.011 226.024 377.938 226.109C377.865 226.195 377.823 226.312 377.82 226.435V228.778C377.82 229.579 377.557 230.347 377.088 230.913C376.619 231.479 375.983 231.798 375.32 231.798C374.657 231.798 374.021 231.479 373.552 230.913C373.083 230.347 372.82 229.579 372.82 228.778V226.435C372.805 226.324 372.758 226.224 372.688 226.151C372.617 226.079 372.528 226.039 372.435 226.039C372.342 226.039 372.253 226.079 372.182 226.151C372.112 226.224 372.065 226.324 372.05 226.435V228.778C372.052 229.737 372.346 230.661 372.875 231.376C373.404 232.09 374.132 232.546 374.92 232.655V235.264C374.919 235.325 374.928 235.386 374.946 235.443C374.965 235.501 374.992 235.553 375.028 235.596C375.063 235.64 375.105 235.675 375.152 235.699C375.199 235.723 375.249 235.735 375.3 235.735C375.403 235.735 375.503 235.686 375.576 235.597C375.649 235.509 375.69 235.389 375.69 235.264V232.607C376.478 232.497 377.204 232.041 377.732 231.326C378.259 230.611 378.55 229.687 378.55 228.73V226.386C378.541 226.281 378.503 226.183 378.441 226.108C378.379 226.033 378.297 225.986 378.21 225.976Z" fill="#1C5E7F"/>
<path d="M382.18 249.577H258.01C256.767 249.577 255.76 250.794 255.76 252.295V323.45C255.76 324.951 256.767 326.168 258.01 326.168H382.18C383.423 326.168 384.43 324.951 384.43 323.45V252.295C384.43 250.794 383.423 249.577 382.18 249.577Z" fill="white"/>
<g opacity="0.4">
<path d="M262.78 258.37H260.13V257.163H266.52V258.37H263.87V266.548H262.78V258.37Z" fill="black"/>
<path d="M270.57 259.421V260.629H270.32C270.06 260.607 269.799 260.657 269.556 260.773C269.314 260.89 269.096 261.071 268.919 261.303C268.743 261.535 268.611 261.812 268.535 262.113C268.459 262.415 268.44 262.733 268.48 263.045V266.572H267.42V259.506H268.42V260.714C268.639 260.273 268.958 259.917 269.339 259.688C269.72 259.459 270.147 259.366 270.57 259.421Z" fill="black"/>
<path d="M276.49 262.284V266.548H275.49V265.606C275.266 265.955 274.972 266.231 274.637 266.408C274.302 266.585 273.935 266.658 273.57 266.62C272.24 266.62 271.41 265.775 271.41 264.543C271.41 263.311 272.01 262.477 273.76 262.477H275.43V262.224C275.43 261.149 274.91 260.52 273.87 260.52C273.197 260.515 272.542 260.783 272.01 261.281L271.57 260.327C272.273 259.704 273.129 259.385 274 259.421C274.328 259.362 274.662 259.395 274.978 259.515C275.294 259.636 275.583 259.843 275.823 260.119C276.064 260.395 276.248 260.733 276.364 261.108C276.479 261.483 276.522 261.886 276.49 262.284ZM275.43 264.386V263.395H273.8C272.75 263.395 272.45 263.89 272.45 264.494C272.45 265.098 272.94 265.642 273.75 265.642C274.104 265.672 274.456 265.567 274.758 265.341C275.059 265.116 275.294 264.781 275.43 264.386Z" fill="black"/>
<path d="M284 262.477V266.548H283V262.622C283 261.245 282.42 260.557 281.42 260.557C281.164 260.533 280.907 260.578 280.667 260.689C280.428 260.8 280.212 260.974 280.035 261.198C279.857 261.422 279.724 261.691 279.644 261.986C279.563 262.28 279.538 262.592 279.57 262.9V266.524H278.51V259.458H279.51V260.52C279.761 260.142 280.084 259.841 280.451 259.644C280.818 259.446 281.219 259.357 281.62 259.385C281.953 259.362 282.287 259.428 282.596 259.579C282.906 259.729 283.184 259.96 283.412 260.256C283.639 260.551 283.809 260.903 283.911 261.287C284.013 261.671 284.043 262.077 284 262.477Z" fill="black"/>
<path d="M285.23 265.799L285.67 264.784C286.284 265.264 286.999 265.52 287.73 265.521C288.73 265.521 289.12 265.159 289.12 264.555C289.12 262.972 285.42 264.349 285.42 261.535C285.42 260.267 286.36 259.409 287.86 259.409C288.604 259.395 289.338 259.616 289.99 260.049L289.54 261.064C289.033 260.685 288.446 260.492 287.85 260.508C286.92 260.508 286.47 260.919 286.47 261.475C286.47 263.141 290.17 261.789 290.17 264.531C290.17 265.811 289.17 266.62 287.65 266.62C286.793 266.65 285.949 266.363 285.23 265.799Z" fill="black"/>
<path d="M291.5 256.655H292.56V266.548H291.5V256.655Z" fill="black"/>
<path d="M299.21 262.284V266.548H298.21V265.606C297.986 265.955 297.692 266.231 297.357 266.408C297.022 266.585 296.655 266.658 296.29 266.62C294.96 266.62 294.13 265.775 294.13 264.543C294.13 263.311 294.73 262.477 296.48 262.477H298.15V262.224C298.15 261.149 297.63 260.52 296.59 260.52C295.917 260.515 295.262 260.783 294.73 261.281L294.29 260.327C294.989 259.702 295.841 259.379 296.71 259.409C297.039 259.348 297.376 259.379 297.694 259.499C298.012 259.62 298.303 259.827 298.545 260.105C298.786 260.382 298.972 260.723 299.087 261.101C299.202 261.479 299.244 261.883 299.21 262.284ZM298.15 264.386V263.395H296.52C295.52 263.395 295.17 263.89 295.17 264.494C295.17 265.098 295.66 265.642 296.47 265.642C296.824 265.672 297.176 265.567 297.478 265.341C297.779 265.116 298.014 264.781 298.15 264.386Z" fill="black"/>
<path d="M304.46 266.125C304.098 266.466 303.649 266.642 303.19 266.62C302.941 266.656 302.689 266.624 302.452 266.526C302.214 266.429 301.999 266.268 301.82 266.055C301.641 265.843 301.504 265.585 301.42 265.3C301.335 265.015 301.304 264.711 301.33 264.41V260.533H300.33V259.482H301.33V257.936H302.39V259.482H304.07V260.533H302.39V264.361C302.368 264.518 302.376 264.678 302.414 264.83C302.451 264.981 302.516 265.121 302.605 265.237C302.694 265.354 302.804 265.445 302.926 265.502C303.048 265.56 303.179 265.583 303.31 265.569C303.607 265.574 303.897 265.455 304.13 265.231L304.46 266.125Z" fill="black"/>
<path d="M305.56 257.295C305.56 257.183 305.579 257.071 305.615 256.968C305.652 256.864 305.705 256.771 305.773 256.693C305.84 256.615 305.92 256.554 306.007 256.515C306.094 256.475 306.187 256.457 306.28 256.462C306.415 256.469 306.545 256.524 306.655 256.62C306.764 256.716 306.848 256.848 306.896 257.001C306.943 257.154 306.953 257.32 306.923 257.479C306.893 257.638 306.825 257.783 306.727 257.896C306.63 258.009 306.507 258.085 306.374 258.115C306.241 258.144 306.104 258.125 305.979 258.061C305.855 257.997 305.749 257.891 305.675 257.755C305.6 257.618 305.56 257.459 305.56 257.295ZM305.75 259.482H306.8V266.548H305.75V259.482Z" fill="black"/>
<path d="M308.28 263.045C308.28 262.331 308.455 261.633 308.782 261.038C309.11 260.444 309.575 259.979 310.121 259.703C310.666 259.427 311.267 259.352 311.847 259.487C312.428 259.622 312.962 259.961 313.384 260.462C313.805 260.963 314.095 261.603 314.216 262.302C314.337 263 314.285 263.727 314.066 264.39C313.846 265.053 313.47 265.623 312.983 266.029C312.496 266.434 311.921 266.657 311.33 266.668C310.929 266.692 310.527 266.615 310.152 266.442C309.776 266.269 309.434 266.004 309.148 265.664C308.861 265.323 308.636 264.915 308.487 264.464C308.338 264.013 308.267 263.53 308.28 263.045ZM313.28 263.045C313.33 262.698 313.317 262.341 313.241 262.001C313.166 261.66 313.029 261.344 312.841 261.074C312.654 260.804 312.419 260.587 312.155 260.438C311.89 260.289 311.602 260.212 311.31 260.212C311.018 260.212 310.73 260.289 310.465 260.438C310.201 260.587 309.966 260.804 309.779 261.074C309.591 261.344 309.454 261.66 309.379 262.001C309.303 262.341 309.29 262.698 309.34 263.045C309.29 263.392 309.303 263.748 309.379 264.089C309.454 264.429 309.591 264.746 309.779 265.016C309.966 265.285 310.201 265.502 310.465 265.651C310.73 265.8 311.018 265.877 311.31 265.877C311.602 265.877 311.89 265.8 312.155 265.651C312.419 265.502 312.654 265.285 312.841 265.016C313.029 264.746 313.166 264.429 313.241 264.089C313.317 263.748 313.33 263.392 313.28 263.045Z" fill="black"/>
<path d="M321.38 262.477V266.548H320.32V262.622C320.32 261.245 319.75 260.557 318.74 260.557C318.485 260.535 318.228 260.582 317.99 260.693C317.751 260.805 317.535 260.979 317.359 261.203C317.182 261.427 317.048 261.695 316.967 261.988C316.886 262.281 316.86 262.593 316.89 262.9V266.523H315.83V259.458H316.83V260.52C317.09 260.138 317.424 259.838 317.802 259.646C318.18 259.455 318.592 259.377 319 259.421C319.33 259.399 319.661 259.465 319.968 259.613C320.275 259.761 320.552 259.989 320.779 260.28C321.005 260.571 321.177 260.919 321.281 261.298C321.385 261.678 321.418 262.08 321.38 262.477Z" fill="black"/>
</g>
<path d="M375.34 315.599C375.593 315.6 375.844 315.542 376.078 315.426C376.312 315.31 376.525 315.139 376.704 314.924C376.883 314.708 377.026 314.452 377.123 314.17C377.22 313.888 377.27 313.585 377.27 313.28V309.91C377.289 309.59 377.253 309.27 377.165 308.968C377.077 308.665 376.939 308.389 376.758 308.154C376.577 307.92 376.359 307.733 376.116 307.605C375.872 307.477 375.61 307.411 375.345 307.411C375.08 307.411 374.818 307.477 374.574 307.605C374.331 307.733 374.113 307.92 373.932 308.154C373.751 308.389 373.613 308.665 373.525 308.968C373.437 309.27 373.401 309.59 373.42 309.91V313.28C373.42 313.584 373.47 313.886 373.566 314.167C373.663 314.449 373.804 314.704 373.982 314.92C374.161 315.135 374.372 315.306 374.605 315.422C374.838 315.539 375.088 315.599 375.34 315.599Z" fill="#1C5E7F"/>
<path d="M378.21 310.526C378.107 310.529 378.01 310.579 377.937 310.667C377.864 310.755 377.823 310.873 377.82 310.997V313.328C377.82 314.129 377.557 314.897 377.088 315.463C376.619 316.03 375.983 316.348 375.32 316.348C374.657 316.348 374.021 316.03 373.552 315.463C373.083 314.897 372.82 314.129 372.82 313.328V310.997C372.829 310.93 372.826 310.861 372.811 310.795C372.795 310.729 372.769 310.668 372.732 310.616C372.695 310.564 372.65 310.523 372.599 310.494C372.547 310.465 372.491 310.451 372.435 310.451C372.379 310.451 372.323 310.465 372.271 310.494C372.22 310.523 372.175 310.564 372.138 310.616C372.101 310.668 372.075 310.729 372.059 310.795C372.044 310.861 372.041 310.93 372.05 310.997V313.328C372.054 314.287 372.348 315.212 372.876 315.928C373.405 316.644 374.131 317.103 374.92 317.217V319.875C374.92 319.996 374.96 320.113 375.031 320.199C375.103 320.285 375.199 320.334 375.3 320.334C375.402 320.334 375.499 320.286 375.572 320.2C375.645 320.114 375.687 319.997 375.69 319.875V317.217C376.478 317.102 377.203 316.643 377.73 315.927C378.257 315.211 378.548 314.286 378.55 313.328V310.997C378.551 310.882 378.517 310.77 378.454 310.683C378.391 310.597 378.305 310.541 378.21 310.526Z" fill="#1C5E7F"/>
<path d="M321.06 147.767H318V146.571L315.73 148.359L318 150.158V148.963H321.06V147.767Z" fill="#1C5E7F"/>
<path d="M319.13 151.825H322.18V153.021L324.45 151.233L322.18 149.434V150.629H319.13V151.825Z" fill="#1C5E7F"/>
<g opacity="0.1">
<path d="M313.34 34.071L271.22 224.623L270.75 226.761L269.99 230.191L269.51 232.341L247.51 331.844V211.445L288.72 25H290.06C290.608 25.0151 291.14 25.2264 291.589 25.607C292.037 25.9875 292.382 26.5203 292.58 27.1379L294.2 31.9693C294.403 32.5833 294.751 33.1114 295.201 33.4874C295.651 33.8634 296.183 34.0706 296.73 34.0831L313.34 34.071Z" fill="white"/>
<path d="M393.82 131.388V251.812L367.55 370.665L366.91 373.552L362.58 393.155H335.97L340.3 373.564L340.99 370.411L344.47 354.673L345.17 351.521L346.56 345.216L347.26 342.075L348.64 335.77L349.34 332.63L371.24 233.561V233.549L372.25 228.971V228.959L393.82 131.388Z" fill="white"/>
<path d="M327.76 34.071L285.9 223.439L285.65 224.562L283.36 234.95L283.11 236.073L248.69 391.887C248.314 391.432 248.017 390.892 247.816 390.296C247.615 389.701 247.514 389.063 247.52 388.421V370.037L277.12 236.073L277.38 234.95L279.67 224.562L279.92 223.439L321.78 34.071H327.76Z" fill="white"/>
</g>
<path d="M184.07 211.747C184.07 211.747 185.92 224.03 199.37 229.587C199.37 229.587 191.72 220.661 191.72 211.747H184.07Z" fill="#01BDDF"/>
<path opacity="0.6" d="M184.07 211.747C184.07 211.747 185.92 224.03 199.37 229.587C199.37 229.587 191.72 220.661 191.72 211.747H184.07Z" fill="white"/>
<path d="M199.28 188H159.21C157.537 188 156.18 189.639 156.18 191.66V215.902C156.18 217.923 157.537 219.561 159.21 219.561H199.28C200.953 219.561 202.31 217.923 202.31 215.902V191.66C202.31 189.639 200.953 188 199.28 188Z" fill="#01BDDF"/>
<path opacity="0.6" d="M199.28 188H159.21C157.537 188 156.18 189.639 156.18 191.66V215.902C156.18 217.923 157.537 219.561 159.21 219.561H199.28C200.953 219.561 202.31 217.923 202.31 215.902V191.66C202.31 189.639 200.953 188 199.28 188Z" fill="white"/>
<path d="M169.64 205.272C170.325 205.272 170.88 204.602 170.88 203.775C170.88 202.947 170.325 202.277 169.64 202.277C168.955 202.277 168.4 202.947 168.4 203.775C168.4 204.602 168.955 205.272 169.64 205.272Z" fill="#01BDDF"/>
<path d="M176.04 205.272C176.725 205.272 177.28 204.602 177.28 203.775C177.28 202.947 176.725 202.277 176.04 202.277C175.355 202.277 174.8 202.947 174.8 203.775C174.8 204.602 175.355 205.272 176.04 205.272Z" fill="#01BDDF"/>
<path d="M183.69 203.775C183.692 204.074 183.62 204.368 183.484 204.618C183.347 204.868 183.152 205.063 182.923 205.179C182.694 205.295 182.442 205.326 182.199 205.268C181.955 205.21 181.732 205.066 181.556 204.854C181.381 204.642 181.261 204.372 181.214 204.078C181.166 203.784 181.191 203.48 181.287 203.203C181.383 202.927 181.545 202.691 181.752 202.526C181.959 202.361 182.202 202.274 182.45 202.277C182.778 202.28 183.092 202.439 183.324 202.719C183.556 202.999 183.687 203.378 183.69 203.775Z" fill="#01BDDF"/>
<path d="M188.85 205.272C189.535 205.272 190.09 204.602 190.09 203.775C190.09 202.947 189.535 202.277 188.85 202.277C188.165 202.277 187.61 202.947 187.61 203.775C187.61 204.602 188.165 205.272 188.85 205.272Z" fill="#01BDDF"/>
<path d="M210.26 117.859C210.04 118.391 209.8 118.922 209.55 119.442C206.72 125.288 204.02 129.201 201.55 131.448C198.16 134.504 195.17 134.419 192.83 131.81C188.78 127.293 192.54 115.939 192.73 115.939C192.92 115.939 197.38 117.147 197.38 117.147L197.74 115.939C198.27 114.139 199.35 110.624 200.74 106.771C203.41 99.4516 207.28 90.8878 210.88 90.4772C210.88 90.3805 215.85 104.5 210.26 117.859Z" fill="#1C5E7F"/>
<path opacity="0.2" d="M210.26 117.859C210.04 118.391 209.8 118.922 209.55 119.442C206.72 125.288 204.02 129.201 201.55 131.448C198.16 134.504 195.17 134.419 192.83 131.81C188.78 127.293 192.54 115.939 192.73 115.939C192.92 115.939 197.38 117.147 197.38 117.147L197.74 115.939C198.27 114.139 199.35 110.624 200.74 106.771C203.41 99.4516 207.28 90.8878 210.88 90.4772C210.88 90.3805 215.85 104.5 210.26 117.859Z" fill="white"/>
<path opacity="0.2" d="M200 126.206C200.043 123.141 199.838 120.079 199.39 117.062L197.73 115.854C198.26 114.055 199.34 110.54 200.73 106.687C205.52 114.586 200.22 125.783 200 126.206Z" fill="black"/>
<path opacity="0.2" d="M210.26 117.859C210.04 118.391 209.8 118.922 209.55 119.442C206.72 125.288 204.02 129.201 201.55 131.448C200.85 120.577 208.28 111.591 208.88 112.521C209.725 114.12 210.201 115.963 210.26 117.859Z" fill="black"/>
<path d="M211.39 360.784L218.88 356.629L212.67 334.73L205.18 338.873L211.39 360.784Z" fill="#FFB573"/>
<path opacity="0.2" d="M212.67 334.73L215.87 346.024L208.38 350.179L205.18 338.885L212.67 334.73Z" fill="black"/>
<path d="M210 360.301L218.41 355.638C218.554 355.556 218.718 355.539 218.871 355.593C219.024 355.646 219.155 355.766 219.24 355.928L223.24 363.429C223.334 363.623 223.393 363.838 223.414 364.06C223.435 364.283 223.417 364.509 223.362 364.722C223.306 364.936 223.214 365.134 223.091 365.302C222.969 365.47 222.818 365.606 222.65 365.7C219.65 367.27 218.2 367.838 214.5 369.891C212.23 371.099 205.8 375.061 202.66 376.8C199.52 378.539 197.92 374.892 199.1 373.817C204.39 368.985 207.73 364.649 208.94 361.545C209.159 360.991 209.535 360.549 210 360.301Z" fill="#1C5E7F"/>
<path opacity="0.2" d="M210 360.301L218.41 355.638C218.554 355.556 218.718 355.539 218.871 355.593C219.024 355.646 219.155 355.766 219.24 355.928L223.24 363.429C223.334 363.623 223.393 363.838 223.414 364.06C223.435 364.283 223.417 364.509 223.362 364.722C223.306 364.936 223.214 365.134 223.091 365.302C222.969 365.47 222.818 365.606 222.65 365.7C219.65 367.27 218.2 367.838 214.5 369.891C212.23 371.099 205.8 375.061 202.66 376.8C199.52 378.539 197.92 374.892 199.1 373.817C204.39 368.985 207.73 364.649 208.94 361.545C209.159 360.991 209.535 360.549 210 360.301Z" fill="black"/>
<path d="M209.68 361.992C209.711 361.96 209.734 361.918 209.746 361.871C209.759 361.824 209.76 361.774 209.75 361.726C209.735 361.682 209.71 361.644 209.679 361.617C209.647 361.589 209.609 361.572 209.57 361.569C209.15 361.569 205.47 361.352 204.78 362.463C204.716 362.567 204.674 362.69 204.66 362.819C204.646 362.948 204.66 363.079 204.7 363.2C204.751 363.403 204.843 363.589 204.966 363.74C205.09 363.891 205.242 364.004 205.41 364.069C206.099 364.197 206.804 364.04 207.41 363.622C208.208 363.167 208.968 362.621 209.68 361.992ZM208.97 361.992C207.44 363.2 206.17 363.84 205.53 363.598C205.419 363.556 205.319 363.481 205.238 363.38C205.158 363.278 205.1 363.154 205.07 363.019C205.045 362.976 205.032 362.925 205.032 362.874C205.032 362.822 205.045 362.771 205.07 362.729C205.149 362.61 205.253 362.519 205.37 362.463C206.549 362.06 207.778 361.909 209 362.016L208.97 361.992Z" fill="#01BDDF"/>
<path d="M209.73 361.919C209.748 361.883 209.757 361.841 209.757 361.799C209.757 361.756 209.748 361.714 209.73 361.678C209.73 361.581 208.59 359.262 207.29 358.815C207.101 358.754 206.904 358.738 206.71 358.769C206.516 358.8 206.329 358.877 206.16 358.996C205.7 359.322 205.67 359.709 205.73 359.975C205.98 361.074 208.49 362.04 209.56 362.04H209.64C209.679 362.011 209.71 361.969 209.73 361.919ZM207.18 359.274C208.023 359.761 208.721 360.55 209.18 361.533C208.02 361.376 206.23 360.506 206.08 359.842C206.08 359.842 206.08 359.624 206.34 359.407L206.45 359.335C206.678 359.204 206.939 359.182 207.18 359.274Z" fill="#01BDDF"/>
<path d="M210.17 160.545C210.17 160.545 182.78 234.152 181.31 260.387C179.69 289.158 205.31 345.903 205.31 345.903L218.79 341.603C218.79 341.603 201.88 284.097 203.29 262.041C207.79 230.504 239.12 165.775 239.12 165.775L210.17 160.545Z" fill="#01BDDF"/>
<path opacity="0.2" d="M210.17 160.545C210.17 160.545 182.78 234.152 181.31 260.387C179.69 289.158 205.31 345.903 205.31 345.903L218.79 341.603C218.79 341.603 201.88 284.097 203.29 262.041C207.79 230.504 239.12 165.775 239.12 165.775L210.17 160.545Z" fill="white"/>
<path opacity="0.2" d="M227.9 182.431C220.78 186.333 216.01 206.806 216.32 217.616C221.32 204.729 226.72 192.118 231.04 182.48C230.567 182.137 230.027 181.952 229.475 181.944C228.924 181.935 228.38 182.103 227.9 182.431Z" fill="black"/>
<path d="M205.85 349.575L217.73 342.992L216.86 337.931L203.35 344.744L205.85 349.575Z" fill="#1C5E7F"/>
<path d="M217.44 367.149H225.68L227.6 344.103H219.37L217.44 367.149Z" fill="#FFB573"/>
<path opacity="0.2" d="M227.6 344.116L226.61 355.989H218.37L219.36 344.116H227.6Z" fill="black"/>
<path d="M216.33 365.99H225.58C225.741 365.988 225.896 366.057 226.018 366.184C226.139 366.31 226.218 366.486 226.24 366.678L227.24 375.52C227.261 375.743 227.243 375.97 227.186 376.184C227.129 376.398 227.035 376.595 226.91 376.762C226.785 376.929 226.632 377.062 226.462 377.152C226.291 377.242 226.106 377.286 225.92 377.283C222.7 377.223 221.14 376.993 217.07 376.993C214.57 376.993 207.38 377.307 203.92 377.307C200.46 377.307 200.28 373.177 201.72 372.802C208.17 371.123 212.72 368.816 214.9 366.606C215.299 366.198 215.807 365.979 216.33 365.99Z" fill="#1C5E7F"/>
<path d="M215.47 367.355C215.508 367.345 215.544 367.321 215.57 367.287C215.597 367.252 215.615 367.208 215.62 367.161C215.626 367.112 215.62 367.062 215.602 367.016C215.584 366.971 215.555 366.934 215.52 366.908C215.15 366.678 211.86 364.649 210.86 365.326C210.763 365.386 210.681 365.475 210.621 365.585C210.562 365.696 210.527 365.822 210.52 365.954C210.499 366.166 210.521 366.381 210.584 366.581C210.646 366.78 210.748 366.959 210.88 367.101C211.469 367.575 212.176 367.788 212.88 367.705C213.75 367.686 214.618 367.569 215.47 367.355ZM214.82 367.017C212.99 367.379 211.64 367.294 211.14 366.751C211.053 366.656 210.987 366.537 210.947 366.405C210.907 366.272 210.894 366.13 210.91 365.99C210.911 365.937 210.923 365.886 210.946 365.841C210.969 365.797 211.001 365.76 211.04 365.736C211.156 365.672 211.283 365.643 211.41 365.652C212.604 365.878 213.757 366.347 214.82 367.041V367.017Z" fill="#01BDDF"/>
<path d="M215.54 367.355C215.569 367.332 215.593 367.299 215.607 367.26C215.621 367.222 215.626 367.179 215.62 367.137C215.62 367.029 215.43 364.347 214.39 363.308C214.244 363.153 214.072 363.036 213.886 362.965C213.7 362.895 213.504 362.872 213.31 362.898C212.77 362.97 212.61 363.296 212.58 363.562C212.42 364.697 214.37 366.835 215.35 367.379H215.43C215.468 367.384 215.506 367.375 215.54 367.355ZM214.14 363.671C214.745 364.537 215.112 365.609 215.19 366.739C214.19 366.002 212.87 364.323 212.96 363.647C212.96 363.586 212.96 363.417 213.35 363.369H213.47C213.715 363.363 213.954 363.466 214.14 363.659V363.671Z" fill="#01BDDF"/>
<path d="M209.8 155.774L249.8 157.453C249.8 157.453 250.06 173.288 247.03 185.077L207.35 168.384L209.8 155.774Z" fill="#01BDDF"/>
<path opacity="0.2" d="M209.8 155.774L249.8 157.453C249.8 157.453 250.06 173.288 247.03 185.077L207.35 168.384L209.8 155.774Z" fill="white"/>
<path d="M224.48 159.494C224.48 159.494 217.58 236.664 217.27 263.201C216.92 292.286 216.55 350.807 216.55 350.807L229.43 353.223C229.43 353.223 235.59 298.676 238.01 270.484C240.76 238.367 248.41 173.058 248.41 173.058L224.48 159.494Z" fill="#01BDDF"/>
<path opacity="0.2" d="M224.48 159.494C224.48 159.494 217.58 236.664 217.27 263.201C216.92 292.286 216.55 350.807 216.55 350.807L229.43 353.223C229.43 353.223 235.59 298.676 238.01 270.484C240.76 238.367 248.41 173.058 248.41 173.058L224.48 159.494Z" fill="white"/>
<path d="M216.27 162.719L235.07 164.157L235.3 158.612L216.5 157.453L216.27 162.719Z" fill="#1C5E7F"/>
<path d="M236.73 158.709L236.49 164.265L249.34 165.256L249.59 159.494L236.73 158.709Z" fill="#1C5E7F"/>
<path d="M215.07 157.368L209.59 157.03L208.87 162.152L214.85 162.611L215.07 157.368Z" fill="#1C5E7F"/>
<path d="M227.874 157.821L220.474 157.364L220.201 163.805L227.601 164.263L227.874 157.821Z" fill="white"/>
<path d="M216.28 354.165H229.35L230.31 349.14L215.67 348.524L216.28 354.165Z" fill="#1C5E7F"/>
<path d="M248.67 133.646C249.08 146.075 250.13 155.593 250 158.709C244.33 158.709 221.45 155.774 209.8 155.774C202.52 98.5577 210.88 90.3805 210.88 90.3805C214.542 89.3646 218.257 88.6542 222 88.2547C227.48 87.9221 232.97 87.9221 238.45 88.2547C242.807 88.5343 247.148 89.115 251.45 89.994C249.776 99.0946 248.838 108.37 248.65 117.69C248.44 123.367 248.51 128.706 248.67 133.646Z" fill="#1C5E7F"/>
<path d="M206.57 113.004C206.603 113.123 206.615 113.249 206.604 113.374C206.593 113.499 206.56 113.619 206.506 113.727C206.453 113.835 206.381 113.928 206.296 113.999C206.21 114.07 206.112 114.118 206.01 114.139L198.07 116.011C197.856 116.042 197.641 115.983 197.459 115.844C197.277 115.706 197.139 115.496 197.07 115.25L192.18 96.7943C192.121 96.5476 192.144 96.2827 192.245 96.0567C192.346 95.8308 192.517 95.6618 192.72 95.5864L200.66 93.7142C200.896 93.6927 201.131 93.7681 201.327 93.9281C201.523 94.0882 201.669 94.3235 201.74 94.5959L206.57 113.004Z" fill="#1C5E7F"/>
<path opacity="0.5" d="M200.84 94.5839L205.72 113.257C205.762 113.364 205.782 113.481 205.779 113.599C205.777 113.717 205.751 113.833 205.704 113.936C205.657 114.04 205.591 114.129 205.51 114.195C205.429 114.262 205.337 114.305 205.24 114.32L198.51 115.903C198.06 116.011 197.19 115.903 197.05 115.371L192.15 96.6252C192.01 96.1058 192.72 95.4898 193.15 95.4173L199.88 93.835C200.089 93.7875 200.305 93.8388 200.484 93.9781C200.662 94.1174 200.79 94.3343 200.84 94.5839Z" fill="white"/>
<path d="M231.1 99.9709C231.1 99.9709 242.56 93.2432 244.82 88.0252C247.08 82.8073 242.06 77.541 233.66 77.5048C225.26 77.4685 216.73 81.5511 217.76 89.3539C218.79 97.1566 222.63 99.9105 222.63 99.9105C222.63 99.9105 225.11 96.2628 231.1 99.9709Z" fill="#1C5E7F"/>
<path opacity="0.2" d="M231.1 99.9709C231.1 99.9709 242.56 93.2432 244.82 88.0252C247.08 82.8073 242.06 77.541 233.66 77.5048C225.26 77.4685 216.73 81.5511 217.76 89.3539C218.79 97.1566 222.63 99.9105 222.63 99.9105C222.63 99.9105 225.11 96.2628 231.1 99.9709Z" fill="white"/>
<path d="M237.46 90.5375C234.11 93.6297 228.32 97.2774 226.18 97.1928C225.288 97.1548 224.42 96.8289 223.668 96.249C222.915 95.6691 222.305 94.8565 221.9 93.8954C224.2 89.6679 223.83 86.926 221.9 83.1696L230.28 68.5666C230.77 75.3789 232.53 87.4334 237.46 90.5375Z" fill="#EBB376"/>
<path opacity="0.2" d="M226.88 74.5213L221.88 83.1696C222.446 84.2403 222.928 85.3726 223.32 86.5516C225.68 85.2592 228.17 81.8047 228.39 78.4106C228.57 76.2607 227.57 74.5093 226.88 74.5213Z" fill="black"/>
<path d="M215.11 55.4492C218.49 57.3697 217.65 61.875 211.59 69.8228C208.22 65.9576 206.65 57.5026 208.59 54.9419C210.53 52.3813 212.16 53.7824 215.11 55.4492Z" fill="#1C5E7F"/>
<path d="M229.83 58.0461C231.38 66.9963 232.67 72.1418 230.01 77.8791C226.01 86.5153 216.11 85.4645 212.37 77.2511C209.01 69.859 207.04 56.4638 213.37 50.5936C214.763 49.2909 216.408 48.44 218.15 48.1217C219.891 47.8035 221.671 48.0284 223.321 48.7752C224.97 49.522 226.434 50.7658 227.573 52.3884C228.713 54.0111 229.489 55.9587 229.83 58.0461Z" fill="#EBB376"/>
<path d="M219.33 64.1821C219.5 64.8947 219.33 65.5832 218.93 65.7161C218.53 65.8489 218.09 65.3658 217.93 64.6411C217.77 63.9163 217.93 63.2399 218.34 63.1191C218.75 62.9984 219.17 63.4573 219.33 64.1821Z" fill="#1C5E7F"/>
<path d="M212.63 66.3925C212.79 67.1051 212.63 67.7936 212.22 67.9264C211.81 68.0593 211.38 67.5762 211.22 66.8635C211.06 66.1509 211.22 65.4503 211.63 65.3295C212.04 65.2087 212.46 65.6798 212.63 66.3925Z" fill="#1C5E7F"/>
<path d="M214.84 66.0421C214.63 68.4659 214.145 70.8433 213.4 73.1081C213.887 73.3307 214.408 73.4201 214.927 73.37C215.446 73.3198 215.949 73.1314 216.4 72.8182L214.84 66.0421Z" fill="#D58745"/>
<path d="M220.81 60.8605C220.865 60.831 220.913 60.7853 220.95 60.7276C220.981 60.6843 221.004 60.6337 221.018 60.5789C221.032 60.5241 221.036 60.4664 221.031 60.4096C221.025 60.3527 221.01 60.2979 220.985 60.2486C220.961 60.1994 220.929 60.1568 220.89 60.1237C220.443 59.6851 219.915 59.3835 219.351 59.2447C218.787 59.1059 218.203 59.1339 217.65 59.3265C217.561 59.3673 217.489 59.4478 217.448 59.5512C217.407 59.6546 217.401 59.7731 217.43 59.8821C217.466 59.9874 217.533 60.0729 217.618 60.122C217.703 60.1711 217.8 60.1803 217.89 60.1478C218.33 60.0063 218.791 59.9928 219.236 60.1083C219.681 60.2237 220.097 60.465 220.45 60.8121C220.501 60.8579 220.561 60.8865 220.625 60.895C220.688 60.9035 220.752 60.8915 220.81 60.8605Z" fill="#1C5E7F"/>
<path d="M209.1 64.5686C209.155 64.5378 209.203 64.4924 209.241 64.436C209.279 64.3795 209.306 64.3133 209.32 64.2425C209.39 63.7004 209.566 63.1861 209.832 62.7412C210.097 62.2963 210.446 61.9333 210.85 61.6818C210.929 61.6304 210.989 61.5453 211.019 61.4431C211.049 61.3408 211.046 61.2288 211.011 61.129C210.976 61.0292 210.911 60.9489 210.83 60.9036C210.748 60.8584 210.655 60.8516 210.57 60.8846C210.047 61.1834 209.593 61.6306 209.244 62.188C208.896 62.7455 208.665 63.3965 208.57 64.0854C208.561 64.1418 208.562 64.1996 208.572 64.2556C208.582 64.3116 208.601 64.3647 208.628 64.4119C208.655 64.459 208.689 64.4993 208.729 64.5303C208.769 64.5613 208.813 64.5825 208.86 64.5927C208.94 64.6118 209.023 64.6034 209.1 64.5686Z" fill="#1C5E7F"/>
<path d="M217.14 75.1615C217.929 75.7059 218.685 76.3195 219.4 76.9974L219.75 76.5988C221.33 74.8112 221.57 73.3497 221.36 72.2747C221.255 71.7481 221.042 71.2619 220.74 70.8615C220.578 70.6262 220.389 70.4189 220.18 70.2455C219.609 71.8773 218.757 73.3432 217.68 74.5455C217.36 74.932 217.14 75.1615 217.14 75.1615Z" fill="#1C5E7F"/>
<path d="M217.68 74.5455L218.35 75.0649C219.84 73.3618 220.7 71.9365 220.74 70.8615C220.578 70.6262 220.389 70.4189 220.18 70.2455C219.609 71.8773 218.757 73.3432 217.68 74.5455Z" fill="white"/>
<path d="M219.75 76.5988C221.33 74.8112 221.57 73.3497 221.36 72.2747C220.771 72.9734 220.287 73.7908 219.93 74.6904C219.708 75.2887 219.645 75.9555 219.75 76.5988Z" fill="#A24E3F"/>
<path d="M225 52.49C221.73 54.6641 222.8 59.109 229.26 66.5615C232.42 62.4427 233.56 53.8911 231.46 51.4874C229.36 49.0838 227.88 50.6057 225 52.49Z" fill="#1C5E7F"/>
<path d="M231 50.956C231 50.956 231.81 47.4653 226.69 43.8055C221.57 40.1457 212.96 42.4768 207.24 46.9821C201.52 51.4874 208 57.9495 210.68 58.2515L209.97 57.0436C212.842 57.3835 215.741 56.9715 218.47 55.8357L216.79 55.0506C216.79 55.0506 227.53 53.3113 231 50.956Z" fill="#1C5E7F"/>
<path d="M234.63 64.3511C234.587 66.634 233.8 68.8041 232.44 70.3904C230.61 72.4921 228.52 70.8615 228.04 67.9747C227.61 65.4261 228.04 61.2711 230.35 60.2323C230.866 60.0134 231.42 59.9563 231.959 60.0665C232.498 60.1766 233.005 60.4503 233.433 60.8619C233.861 61.2736 234.195 61.8097 234.404 62.4199C234.614 63.0302 234.691 63.6947 234.63 64.3511Z" fill="#EBB376"/>
<path d="M214.69 122.618C214.658 122.612 214.628 122.599 214.601 122.579C214.573 122.558 214.55 122.532 214.531 122.5C214.512 122.469 214.499 122.433 214.492 122.395C214.485 122.357 214.484 122.318 214.49 122.28C216.38 107.436 222.22 98.9805 222.28 98.8959C222.325 98.845 222.383 98.8156 222.445 98.8135C222.506 98.8113 222.566 98.8366 222.613 98.8843C222.66 98.9321 222.691 98.9991 222.699 99.0725C222.708 99.1459 222.694 99.2207 222.66 99.2824C222.6 99.367 216.85 107.737 214.98 122.365C214.975 122.405 214.964 122.443 214.946 122.477C214.929 122.512 214.906 122.542 214.879 122.565C214.852 122.589 214.822 122.606 214.789 122.615C214.757 122.624 214.723 122.625 214.69 122.618Z" fill="white"/>
<path d="M230.43 121.495C230.376 121.493 230.324 121.471 230.281 121.432C230.238 121.393 230.207 121.339 230.19 121.278C227.43 110.902 231.04 98.8718 231.07 98.751C231.093 98.6757 231.139 98.6144 231.199 98.5804C231.259 98.5464 231.328 98.5426 231.39 98.5698C231.452 98.5971 231.503 98.6531 231.531 98.7256C231.559 98.798 231.563 98.881 231.54 98.9563C231.54 99.0771 227.96 110.914 230.67 121.096C230.689 121.173 230.684 121.256 230.654 121.328C230.624 121.4 230.573 121.455 230.51 121.483L230.43 121.495Z" fill="white"/>
<path d="M214.92 122.159C214.92 122.159 214.12 122.002 213.98 123.56L215.15 123.742C215.15 123.742 215.52 122.51 214.92 122.159Z" fill="white"/>
<path d="M230.46 120.625C230.46 120.625 229.71 120.976 230.25 122.413L231.33 121.833C231.33 121.833 231.12 120.541 230.46 120.625Z" fill="white"/>
<path d="M197.46 106.228C195.915 106.567 194.394 107.047 192.91 107.665C192.53 107.979 191.7 113.765 191.82 114.912C191.89 115.504 194 120.662 194 120.662C194.86 121.229 198.29 118.729 198.29 118.729L197.46 106.228Z" fill="#EBB376"/>
<path opacity="0.2" d="M248.67 133.646C244.6 134.335 240.32 130.844 240.32 130.844C242.32 123.597 245.6 119.321 248.6 117.678C248.44 123.367 248.51 128.706 248.67 133.646Z" fill="black"/>
<path d="M212.8 109.416L205.22 105.587L207.22 117.726C207.22 117.726 214.43 119.659 214.94 115.081L212.8 109.416Z" fill="#EBB376"/>
<path d="M198.29 109.513L200.32 119.442L207.19 117.726L205.22 105.587L198.29 109.513Z" fill="#EBB376"/>
<path d="M212.4 109.211C214.67 109.936 224.66 116.023 224.66 116.023L221.24 123.367L212.4 116.048V109.211Z" fill="#EBB376"/>
<path d="M216.55 109.948C216.55 109.948 234.55 120.819 236.49 121.519C238.43 122.22 244.01 106.904 245.36 102.507C246.71 98.1108 248.3 90.4288 251.36 89.9819C251.36 89.9819 260.01 88.0977 255.72 104.814C251.43 121.531 245.72 134.83 237.97 135.108C230.22 135.385 213.62 119.236 213.62 119.236L216.55 109.948Z" fill="#1C5E7F"/>
<path opacity="0.2" d="M216.55 109.948C216.55 109.948 234.55 120.819 236.49 121.519C238.43 122.22 244.01 106.904 245.36 102.507C246.71 98.1108 248.3 90.4288 251.36 89.9819C251.36 89.9819 260.01 88.0977 255.72 104.814C251.43 121.531 245.72 134.83 237.97 135.108C230.22 135.385 213.62 119.236 213.62 119.236L216.55 109.948Z" fill="white"/>
</svg>
